<?xml version="1.0" standalone="no"?><!DOCTYPE svg PUBLIC "-//W3C//DTD SVG 1.1//EN" "http://www.w3.org/Graphics/SVG/1.1/DTD/svg11.dtd"><svg t="1700370441903" class="icon" viewBox="0 0 1024 1024" version="1.1" xmlns="http://www.w3.org/2000/svg" p-id="11672" xmlns:xlink="http://www.w3.org/1999/xlink" width="200" height="200"><path d="M1023.77026 768.288136c-7.071412 278.312865-413.46963 255.242783-511.797456 255.242783S7.11877 1046.760988 0.175347 766.272304C-8.559927 420.061082 341.458977 251.78707 341.458977 251.78707S185.503941 205.774895 227.74043 97.463898C275.416467-24.861933 458.377259 0.287976 518.660248 6.367471c60.123002-5.119574 225.261275-26.173824 278.088884 98.231834 45.212242 106.487148-113.782542 153.171268-113.782542 153.171268s349.538945 167.186103 340.80367 510.517563zM607.868832 471.640795a72.154002 72.154002 0 0 1 39.068753 53.083587h98.903778c-5.471545-39.676702-29.757526-74.777784-65.946518-95.288079a284.520349 284.520349 0 0 0-123.893701-29.565542v-49.467888h-57.275239v49.467888a313.637929 313.637929 0 0 0-123.893702 27.709696c-39.516715 14.686779-65.626545 50.747782-65.946518 91.032433 3.103742 49.019925 39.836689 90.264497 90.2325 101.303579l99.767706 25.565875v141.108271a139.220427 139.220427 0 0 1-62.490805-18.110495 86.264829 86.264829 0 0 1-34.685117-67.514388H301.078334c2.015832 43.900351 25.02192 84.536973 62.490806 110.358827a275.945062 275.945062 0 0 0 135.316751 34.973093v53.083587h57.115253v-53.339566a360.322048 360.322048 0 0 0 131.029108-27.101747c42.204492-15.230734 70.170167-53.595545 70.298156-96.439984-3.871678-48.731949-40.252654-89.592553-90.232499-101.303579-4.09566-1.599867-41.116582-11.455048-111.094765-29.565542v-132.660973a132.884954 132.884954 0 0 1 51.867688 12.670947z m-197.807557 47.004093c-0.703941-21.53421 13.310894-41.02059 34.685117-48.219992a150.13152 150.13152 0 0 1 53.883521-12.062997v118.198174c-59.003095-15.806686-88.53664-35.101082-88.568638-57.851191v-0.063994z m245.547589 206.222857c-0.735939 21.182239-15.262731 39.708699-36.412973 46.428141a200.079368 200.079368 0 0 1-63.354734 15.102745v-126.581478c3.295726 0.351971 6.49546 1.151904 9.535207 2.3998 60.186997 14.462798 90.264497 35.357061 90.2325 62.714787v-0.063995z" fill="#018F90" p-id="11673"></path></svg>