<?xml version="1.0" standalone="no"?><!DOCTYPE svg PUBLIC "-//W3C//DTD SVG 1.1//EN" "http://www.w3.org/Graphics/SVG/1.1/DTD/svg11.dtd"><svg t="1700370968143" class="icon" viewBox="0 0 1024 1024" version="1.1" xmlns="http://www.w3.org/2000/svg" p-id="22405" xmlns:xlink="http://www.w3.org/1999/xlink" width="200" height="200"><path d="M992.909722 504.105462c-14.654931-8.126962-52.923749-12.029943-75.834641-13.694935 18.622912-25.917877-20.669902-100.663523-25.853877-105.847498-4.607978-4.606978-64.762693-36.476827-95.992545-29.885859 6.527969-31.292852-25.27788-91.384567-29.949859-95.991545-4.670978-4.671978-64.762693-36.477827-95.992545-29.885859 6.527969-31.293852-25.27788-91.385567-29.884858-96.056545-5.247975-5.247975-82.041611-45.564784-106.872494-24.957882-1.214994-23.102891-4.479979-61.947707-12.66994-76.729636-11.967943-21.502898-56.443733-58.427723-76.410638 1.790991l-238.508871 569.171305 1.919991-1.983991 26.876873 26.877873 91.065569-144.692315L355.582741 513.00242 260.871189 653.981753l18.942911 18.94291 108.599485-127.158398 30.013858 30.013858-112.055469 123.639414 18.046914 17.981915L448.120303 605.345983l29.949858 30.141857-127.159398 108.599486 18.94291 18.94191 141.109332-94.712551 30.781854 30.781854-144.757314 91.000569 27.005872 27.005872-1.982991 1.919991 569.171304-238.508871c60.154715-19.966905 23.22989-64.506694 1.727992-76.409638z m-596.370175-52.091753l-32.380847-32.380847 36.092829-57.339728c8.319961-12.73494 24.381885-18.174914 35.837831-12.030943 11.518945 6.206971 14.078933 21.501898 5.759972 34.236838l-45.309785 67.51468z m70.394666 70.330667l-31.54985-31.485851 46.140781-54.011744c10.174952-11.518945 26.429875-14.206933 36.349828-5.950972 9.918953 8.254961 9.662954 24.317885-0.447998 35.772831l-50.492761 55.675736z m66.170687 66.170687l-31.549851-31.484851 55.739736-50.492761c11.455946-10.110952 27.51887-10.302951 35.773831-0.447998 8.254961 9.919953 5.567974 26.173876-6.015971 36.349828l-53.947745 46.075782z m128.566391 35.197833l-57.339728 36.028829-32.380847-32.381846 67.51468-45.307786c12.73494-8.319961 28.093867-5.759973 34.236838 5.759973 6.079971 11.517945 0.703997 27.580869-12.030943 35.89983zM48.535195 758.550257c-0.255999 0.255999-0.575997 0.511998-0.831996 0.767997C-14.307507 821.32896-15.971499 920.200492 43.927217 980.100208c59.963716 59.963716 158.772248 58.299724 220.782954-3.774982 0.255999-0.255999 0.511998-0.511998 0.767997-0.831996l93.689556-93.624557-217.071972-217.070972-93.559557 93.752556zM150.031714 965.446277c-14.142933 14.142933-46.140781 5.119976-71.419661-20.158904-25.27688-25.27788-34.299838-57.275729-20.157905-71.418662 14.142933-14.142933 35.133834 5.823972 60.411714 31.165852 25.34188 25.27788 45.372785 46.268781 31.165852 60.411714z" fill="#018F90" p-id="22406"></path></svg>