<?xml version="1.0" standalone="no"?><!DOCTYPE svg PUBLIC "-//W3C//DTD SVG 1.1//EN" "http://www.w3.org/Graphics/SVG/1.1/DTD/svg11.dtd"><svg t="1700370712484" class="icon" viewBox="0 0 1024 1024" version="1.1" xmlns="http://www.w3.org/2000/svg" p-id="16927" xmlns:xlink="http://www.w3.org/1999/xlink" width="200" height="200"><path d="M512.60681482 225.77840987c-213.35608889 0-386.29831111 171.72859259-386.29831112 383.50696297s172.94222222 383.50696297 386.29831112 383.50696297 386.29831111-171.72859259 386.2983111-383.50696297-172.94222222-383.50696297-386.2983111-383.50696297z m198.5498074 349.28260742l-76.21594074 73.66731852 17.96171852 104.12942222c6.06814815 34.95253333-14.0781037 50.24426667-46.23928889 33.37481481l-94.17765926-49.152-94.17765926 49.152c-31.55437037 16.50536297-52.4288 2.18453333-46.23928889-33.37481481l17.96171852-104.12942222-76.21594074-73.66731852c-25.60758518-24.75804445-18.32580741-48.78791111 17.7189926-54.00651852l105.22168889-15.17037037 47.08882962-94.66311111c15.77718518-31.7970963 41.14204445-32.40391111 57.28331852 0l47.08882964 94.66311111 105.22168888 15.17037037c35.43798518 5.09724445 43.81202963 28.88438518 17.71899259 54.00651852zM897.57013333 90.21598025l-101.21671111 161.17001482c-5.5826963 8.8594963-17.3549037 10.19448889-25.48622222 3.64088888-68.08462222-55.7056-161.17001482-75.60912592-207.4093037-82.28408888-12.74311111-1.82044445-18.81125925-16.50536297-11.28675555-26.94257778l75.12367407-103.40124445c8.00995555-11.04402963 20.87442963-17.59762963 34.58844443-17.59762963h199.52071112c33.61754075 0 54.00651852 36.89434075 36.16616296 65.41463704zM457.75075555 172.74279507c-46.36065185 6.79632592-139.32468148 26.57848889-207.53066666 82.28408888-8.00995555 6.5536-19.78216297 5.21860741-25.36485926-3.64088888l-102.06625185-161.17001482c-17.96171852-28.39893333 2.42725925-65.536 36.0448-65.536h199.39934814c13.59265185 0 26.33576297 6.43223703 34.34571853 17.3549037l76.45866666 103.64397037c7.5245037 10.43721482 1.45635555 25.2434963-11.28675556 27.06394075z" fill="#018F90" p-id="16928"></path></svg>