<?xml version="1.0" standalone="no"?><!DOCTYPE svg PUBLIC "-//W3C//DTD SVG 1.1//EN" "http://www.w3.org/Graphics/SVG/1.1/DTD/svg11.dtd"><svg t="1700370790258" class="icon" viewBox="0 0 1024 1024" version="1.1" xmlns="http://www.w3.org/2000/svg" p-id="18335" xmlns:xlink="http://www.w3.org/1999/xlink" width="200" height="200"><path d="M512 448c-52.9 0-96 43.1-96 96s43.1 96 96 96 96-43.1 96-96S564.9 448 512 448z" p-id="18336" fill="#018F90"></path><path d="M864 288 352 288c0-17.7-14.3-32-32-32l-64 0c-17.7 0-32 14.3-32 32l-64 0c-17.7 0-32 14.3-32 32l0 448c0 17.7 14.3 32 32 32l704 0c17.7 0 32-14.3 32-32L896 320C896 302.3 881.7 288 864 288zM512 704c-88.2 0-160-71.8-160-160s71.8-160 160-160 160 71.8 160 160S600.2 704 512 704zM736 448l-32 0c-17.7 0-32-14.3-32-32 0-17.7 14.3-32 32-32l32 0c17.7 0 32 14.3 32 32C768 433.7 753.7 448 736 448z" p-id="18337" fill="#018F90"></path></svg>