<?xml version="1.0" standalone="no"?><!DOCTYPE svg PUBLIC "-//W3C//DTD SVG 1.1//EN" "http://www.w3.org/Graphics/SVG/1.1/DTD/svg11.dtd"><svg t="1700370593461" class="icon" viewBox="0 0 1024 1024" version="1.1" xmlns="http://www.w3.org/2000/svg" p-id="13663" xmlns:xlink="http://www.w3.org/1999/xlink" width="200" height="200"><path d="M627.52768 452.11648c89.02656 0 161.25952-72.4992 161.25952-161.93536 0-89.4976-72.23296-161.9968-161.25952-161.9968-89.04704 0-161.21856 72.4992-161.21856 161.9968 0 89.41568 72.17152 161.93536 161.21856 161.93536z m-392.76544 204.45184a13.7216 13.7216 0 0 0-13.66016 13.74208v115.03616c0 7.59808 6.10304 13.76256 13.66016 13.76256h12.9024a13.7216 13.7216 0 0 0 13.68064-13.76256V670.3104a13.7216 13.7216 0 0 0-13.66016-13.74208h-12.9024z m6.51264 135.84384a10.30144 10.30144 0 1 1 0-20.62336 10.30144 10.30144 0 0 1 0 20.62336z m10.19904-114.0736a10.30144 10.30144 0 0 1-10.24 10.30144 10.28096 10.28096 0 0 1 0-20.60288c5.632 0 10.24 4.58752 10.24 10.30144z m187.392-21.77024a13.7216 13.7216 0 0 0-13.68064 13.74208v115.03616c0 7.59808 6.10304 13.76256 13.66016 13.76256h12.86144a13.7216 13.7216 0 0 0 13.68064-13.76256V670.3104a13.7216 13.7216 0 0 0-13.68064-13.74208h-12.86144z m6.43072 135.84384a10.30144 10.30144 0 1 1 0-20.62336 10.30144 10.30144 0 0 1 0 20.62336z m10.21952-114.0736a10.30144 10.30144 0 0 1-10.26048 10.30144 10.32192 10.32192 0 0 1 0-20.62336c5.632 0 10.24 4.608 10.24 10.32192zM133.89824 699.2896h74.38336v-44.6464c0-5.03808 4.096-9.15456 9.1136-9.15456h47.75936c4.99712 0 9.1136 4.096 9.1136 9.13408v44.6464h138.0352v-44.6464c0-5.0176 4.096-9.13408 9.1136-9.13408h47.77984c4.99712 0 9.09312 4.096 9.09312 9.13408v44.6464h72.76544c7.55712 0 13.68064-6.12352 13.68064-13.7216v-130.27328a13.76256 13.76256 0 0 0-13.68064-13.76256h-125.78816v-35.77856c0-11.32544-9.19552-20.56192-20.48-20.56192H280.1664c-11.32544 0-20.48 9.23648-20.48 20.56192v35.77856H133.91872c-7.5776 0-13.68064 6.16448-13.68064 13.76256v130.2528c0 7.61856 6.10304 13.76256 13.68064 13.76256z m139.38688-193.61792c0-3.76832 3.072-6.8608 6.8608-6.8608h124.66176c3.74784 0 6.84032 3.09248 6.84032 6.8608v35.79904h-138.36288v-35.79904z m291.4304 353.9968v-138.24a13.0048 13.0048 0 0 1-4.56704 0.8192h-81.85856v84.00896c0 5.0176-4.096 9.13408-9.1136 9.13408h-47.75936a9.15456 9.15456 0 0 1-9.1136-9.13408v-83.94752h-138.0352v83.94752c0 5.0176-4.096 9.13408-9.1136 9.13408h-47.8208a9.13408 9.13408 0 0 1-9.09312-9.13408v-83.94752H124.74368a14.41792 14.41792 0 0 1-4.56704-0.8192v138.17856c0 7.5776 6.10304 13.7216 13.66016 13.7216h417.21856a13.7216 13.7216 0 0 0 13.66016-13.7216z m131.2768-390.9632h-136.84736c-45.6704 0-87.8592 8.192-122.0608 31.15008v28.40576h116.06016c18.04288 0 32.6656 14.66368 32.6656 32.82944v281.8048c0 17.85856-14.17216 41.472-31.82592 41.92256a14.21312 14.21312 0 0 1-2.53952 8.43776c33.56672 3.76832 49.3568 2.6624 97.25952 1.26976 143.42144-4.21888 255.11936-55.05024 255.11936-55.05024v-168.96c0-114.29888-94.0032-201.80992-207.85152-201.80992z" fill="#018F90" p-id="13664"></path></svg>