<?xml version="1.0" standalone="no"?><!DOCTYPE svg PUBLIC "-//W3C//DTD SVG 1.1//EN" "http://www.w3.org/Graphics/SVG/1.1/DTD/svg11.dtd"><svg t="1700371189723" class="icon" viewBox="0 0 1024 1024" version="1.1" xmlns="http://www.w3.org/2000/svg" p-id="34390" xmlns:xlink="http://www.w3.org/1999/xlink" width="200" height="200"><path d="M144.033506 383.632156a35.497234 35.497234 0 0 0 27.226828 12.58985c18.454877 0 34.079596-14.416913 35.574001-32.830847 4.672574-57.636944 26.740635-104.654402 65.584927-139.737092a203.715021 203.715021 0 0 1 45.799415-31.218732 165.81241 165.81241 0 0 1 14.590919-6.443342c2.057366-0.788145 3.449414-1.274338 4.068671-1.45858a35.456291 35.456291 0 0 0 21.274798-17.165184 35.517705 35.517705 0 0 0 2.906925-27.175651 35.901542 35.901542 0 0 0-34.253603-25.635185c-3.398236 0-6.791354 0.491311-10.087233 1.45858-8.127106 2.390024-19.166254 6.934653-30.292405 12.47214a274.990969 274.990969 0 0 0-61.864268 42.165759c-52.805718 47.687893-82.724522 110.591079-88.911972 186.974616a35.43582 35.43582 0 0 0 8.382997 26.003668z" fill="#018F90" p-id="34391"></path><path d="M758.029198 819.220471c147.971672-9.969523 263.291621-149.43537 263.291621-319.521163 0-176.524017-125.617013-320.130185-280.021791-320.130185a247.405892 247.405892 0 0 0-85.820806 15.348357C593.040758 74.623005 478.242827 0.286598 353.85921 0.286598 161.62347 0.286598 5.227858 175.229208 5.227858 390.254622c0 189.078042 123.267931 351.865817 288.650444 384.087643-10.11794 33.332394-6.126036 66.65967 11.760761 97.069785 28.9413 49.17718 31.873814 56.720854 31.853343 67.596231-0.015353 7.548792-4.012375 15.675898-12.963451 26.336328a35.502352 35.502352 0 0 0-8.198755 26.075318 35.446055 35.446055 0 0 0 12.61032 24.238018 35.748007 35.748007 0 0 0 22.938092 8.347173c10.599015 0 20.578774-4.657221 27.365009-12.763856 19.908339-23.736472 29.611735-47.319409 29.662914-72.099917 0.051178-30.108164-7.323607-45.492346-41.725627-103.963496-10.128176-17.20101-9.708514-34.616968 1.305045-54.801669 0.112592-0.214949 0.230302-0.424779 0.35313-0.63461 60.359627-2.881335 118.75401-23.173511 169.763371-58.962461 38.859645 46.592678 89.638704 78.91686 144.773031 92.172027-4.09426 20.123288 0.603903 39.965095 13.853952 57.959367 4.416683 6.008326 12.758738 17.359662 16.279802 23.178629-0.501547 0.527136-1.10545 1.136157-1.8373 1.837299a35.43582 35.43582 0 0 0-11.039148 24.995457 35.476762 35.476762 0 0 0 9.851813 25.48165 35.824774 35.824774 0 0 0 25.839898 11.064738 35.471645 35.471645 0 0 0 24.632091-9.867166c16.96559-16.172327 25.241113-33.178859 25.27182-52.00222 0.061414-24.125427-8.521178-35.794068-31.464388-66.992328-1.05939-1.443227-1.146393-1.944773-1.146392-1.949891 0-0.010236-0.015353-1.29481 2.369552-4.785166 0.829088-1.187335 1.555819-2.077837 2.042013-2.651034zM353.848974 71.710963c152.854077 0 277.212105 142.899908 277.212105 318.543659 0 98.246885-38.793113 189.579589-106.123218 250.323052l-18.731239 15.594013c-45.349047 34.437844-98.031936 52.631712-152.35253 52.631712-152.854077 0-277.206987-142.899908-277.206987-318.548777-0.005118-175.643751 124.347792-318.543659 277.201869-318.543659z m387.455172 179.282525c115.028233 0 208.607662 111.573701 208.607661 248.716055 0 137.137237-93.579429 248.70582-208.607661 248.70582-55.733113 0-109.43445-27.016998-148.560222-74.428527 69.848075-73.655736 109.74152-176.518899 109.74152-283.732214 0-44.223125-6.642937-87.652987-19.759922-129.245551a176.263008 176.263008 0 0 1 58.578624-10.015583z" fill="#018F90" p-id="34392"></path></svg>