<?xml version="1.0" standalone="no"?><!DOCTYPE svg PUBLIC "-//W3C//DTD SVG 1.1//EN" "http://www.w3.org/Graphics/SVG/1.1/DTD/svg11.dtd"><svg t="1700100221063" class="icon" viewBox="0 0 1024 1024" version="1.1" xmlns="http://www.w3.org/2000/svg" p-id="14399" xmlns:xlink="http://www.w3.org/1999/xlink" width="200" height="200"><path d="M129.2288 1018.88c-22.2208 0-44.9536-7.168-61.0304-19.2512C53.9648 989.0816 45.056 970.1376 43.008 946.688c-2.4576-28.3648 5.3248-56.9344 19.968-73.0112 18.3296-19.968 275.456-273.6128 334.2336-331.5712l-27.0336-30.8224c-10.8544 1.3312-31.1296 3.072-52.0192 3.072-18.3296 0-33.3824-1.4336-44.8512-4.4032-7.5776-1.9456-20.7872-8.3968-55.0912-41.3696-21.7088-20.8896-48.0256-48.8448-74.1376-78.6432C121.0368 363.52 45.2608 274.6368 34.7136 235.52c-13.9264-51.712-6.8608-111.616-5.632-121.344 0.3072-25.6 11.264-72.192 50.9952-72.192 25.1904 0 56.32 20.2752 94.9248 61.7472 21.9136 23.552 267.8784 283.3408 323.8912 342.4256l33.5872-36.7616c-14.6432-14.1312-36.352-38.2976-41.0624-62.2592-6.4512-32.5632 0.6144-47.7184 14.5408-77.824 1.3312-2.8672 2.7648-5.8368 4.3008-9.1136C533.9136 208.1792 709.632 40.7552 739.84 16.1792c9.0112-7.2704 18.432-11.0592 28.2624-11.0592 16.2816 0 31.744 11.0592 39.936 28.5696 6.8608 14.6432 6.5536 30.0032-0.6144 40.2432C796.7744 88.7808 641.024 259.1744 620.7488 281.1904c-5.0176 6.7584-15.872 25.9072-9.4208 32.9728 0.6144 0.6144 1.2288 1.1264 3.072 1.1264 8.192 0 21.4016-10.0352 26.4192-14.7456 9.6256-10.0352 169.1648-177.9712 183.5008-192.4096 8.0896-8.2944 17.7152-12.6976 27.9552-12.6976 19.0464 0 34.2016 15.2576 40.5504 30.208 6.4512 14.9504 5.0176 30.0032-3.4816 40.3456-13.4144 16.384-174.3872 204.0832-181.248 211.968l-0.4096 0.6144c-2.1504 2.4576-11.776 13.824-4.4032 23.8592 1.024 1.4336 1.8432 1.7408 3.3792 1.7408 6.8608 0 18.1248-7.9872 23.04-12.288 8.0896-8.6016 169.472-177.5616 187.4944-196.7104 6.5536-6.8608 15.2576-10.5472 25.1904-10.5472 20.2752 0 43.8272 15.7696 52.3264 35.0208 5.3248 11.9808 4.096 24.3712-3.1744 33.792-0.7168 0.9216-1.8432 2.4576-3.3792 4.4032-44.9536 58.2656-86.8352 108.8512-124.2112 150.528-100.352 112.0256-137.6256 125.0304-156.7744 125.0304-2.4576 0-4.9152-0.2048-7.168-0.6144-32.0512-6.656-60.2112-26.624-75.776-39.424l-37.2736 46.08c55.5008 57.5488 312.832 324.4032 324.608 336.5888 10.8544 11.1616 20.8896 36.9664 19.5584 64.7168-1.2288 23.552-10.5472 43.3152-27.0336 57.1392-15.1552 12.6976-35.1232 19.6608-56.32 19.6608-23.3472 0-44.2368-8.3968-54.784-22.2208-10.3424-13.4144-190.3616-228.0448-293.6832-350.8224L186.5728 996.1472c-13.1072 14.7456-33.4848 22.7328-57.344 22.7328z m0 0" fill="#018F90" p-id="14400"></path></svg>