<?xml version="1.0" standalone="no"?><!DOCTYPE svg PUBLIC "-//W3C//DTD SVG 1.1//EN" "http://www.w3.org/Graphics/SVG/1.1/DTD/svg11.dtd"><svg t="1700371053218" class="icon" viewBox="0 0 1024 1024" version="1.1" xmlns="http://www.w3.org/2000/svg" p-id="28936" xmlns:xlink="http://www.w3.org/1999/xlink" width="200" height="200"><path d="M336.788 216.864c93 0 168.346-92.93 168.346-92.93s-75.347-92.952-168.346-92.952-168.346 92.93-168.346 92.93 75.347 92.952 168.346 92.952z" p-id="28937" fill="#018F90"></path><path d="M849.892 313.698c-109.963-72.225-184.713-56.641-249.818-35.2-10.218-39.048-13.468-101.616-10.709-123.653 6.36-61.96 69.899-81.016 104.842-104.842 34.955-20.646 1.59-55.6-28.595-49.241-9.528 3.18-152.493 38.123-136.618 212.864-1.169 15.782 6.84 63 10.71 84.441a226.355 226.355 0 0 1-28.175 6.103C357.434 229.513 233.98 255.864 157.3 327.996 68.322 412.192 65.12 514.205 65.12 607.59c-3.18 208.094 187.447 424.138 446.384 416.188 231.616 0 392.374-147.735 436.846-352.661 23.007-105.87 15.91-262.105-98.46-357.42zM303.388 432.943c-45.828 5.787-87.4 88.44-82.607 135.413-3.413 15.63-21.522 16.811-29.226 7.014-17.127-48.703 45.418-173.43 104.76-171.619 18.915 3.449 21.721 23.545 7.073 29.192z" p-id="28938" fill="#018F90"></path></svg>