<?xml version="1.0" standalone="no"?><!DOCTYPE svg PUBLIC "-//W3C//DTD SVG 1.1//EN" "http://www.w3.org/Graphics/SVG/1.1/DTD/svg11.dtd"><svg t="1700100373844" class="icon" viewBox="0 0 1024 1024" version="1.1" xmlns="http://www.w3.org/2000/svg" p-id="19238" xmlns:xlink="http://www.w3.org/1999/xlink" width="200" height="200"><path d="M819.2 562.46272c0 25.66144-20.80768 46.46912-46.44864 46.46912-25.68192 0-46.44864-20.80768-46.44864-46.46912s46.44864-107.06944 46.44864-107.06944S819.2 536.80128 819.2 562.46272zM327.35232 475.91424l172.81024 0 0-129.00352-172.81024 0L327.35232 475.91424zM737.792 399.27808l-53.26848 0 0 283.7504-95.41632 0 0 43.60192 33.60768 0 0 40.2432-33.60768 0L238.3872 766.8736 204.8 766.8736 204.8 726.6304l33.60768 0L238.40768 257.1264l350.72 0 0 385.67936 55.21408 0L644.34176 379.14624l-0.04096-20.1728 20.02944 0.06144 93.12256 0 31.17056 39.99744-31.70304 24.73984L737.792 399.27808zM548.90496 726.67136 548.90496 297.3696 278.6304 297.3696l0 429.30176L548.90496 726.67136z" p-id="19239" fill="#018F90"></path></svg>