<?xml version="1.0" standalone="no"?><!DOCTYPE svg PUBLIC "-//W3C//DTD SVG 1.1//EN" "http://www.w3.org/Graphics/SVG/1.1/DTD/svg11.dtd"><svg t="1700100468090" class="icon" viewBox="0 0 1024 1024" version="1.1" xmlns="http://www.w3.org/2000/svg" p-id="28260" xmlns:xlink="http://www.w3.org/1999/xlink" width="200" height="200"><path d="M1009.2544 537.2928 1009.2544 434.8928c0-162.9184-114.176-198.9632-187.2896-198.9632L541.9008 235.9296c0.4096-1.536 0.7168-3.2768 0.7168-4.9152l0-65.8432c0-10.3424-8.3968-18.7392-18.7392-18.7392-10.3424 0-18.7392 8.3968-18.7392 18.7392l0 65.8432c0 1.7408 0.2048 3.3792 0.7168 4.9152l-3.8912 0L210.2272 235.9296c-73.1136 0-187.2896 36.0448-187.2896 198.9632l0 102.5024 0 29.9008 0 163.4304c0 59.5968 48.3328 107.9296 107.9296 107.9296 17.408 0 34.816 0 52.1216 0 0 0 58.1632 3.6864 86.016-27.5456 16.5888-18.6368 25.1904-31.8464 25.1904-31.8464 20.5824-27.7504 50.176-41.984 83.968-46.592 7.3728-1.024 14.9504-1.6384 22.4256-1.9456l76.0832 0 129.6384 0c7.4752 0.3072 40.1408 0.9216 47.616 1.9456 33.792 4.608 63.3856 18.8416 83.968 46.592 0 0 8.704 13.2096 25.1904 31.8464 27.8528 31.3344 86.016 27.5456 86.016 27.5456 17.408 0 34.816 0 52.1216 0 59.5968 0 107.9296-48.3328 107.9296-107.9296L1009.152 567.1936 1009.2544 537.2928zM401.2032 510.5664l-114.176 0.3072L286.72 625.2544c0 10.3424-8.3968 18.7392-18.7392 18.7392l0 0c-10.3424 0-18.7392-8.3968-18.7392-18.7392l0.2048-114.2784-114.0736 0.3072 0 0c-10.3424 0-18.7392-8.3968-18.7392-18.7392 0-10.3424 8.2944-18.7392 18.7392-18.7392l114.2784-0.3072 0.2048-114.4832c0-10.3424 8.3968-18.7392 18.7392-18.7392l0 0c10.3424 0 18.7392 8.3968 18.7392 18.7392l-0.2048 114.3808 114.0736-0.3072 0 0c10.3424 0 18.7392 8.3968 18.7392 18.7392C419.9424 502.0672 411.5456 510.464 401.2032 510.5664zM688.2304 488.1408c-31.232 0-56.6272-25.3952-56.6272-56.6272 0-31.232 25.3952-56.5248 56.6272-56.5248s56.6272 25.3952 56.6272 56.5248C744.7552 462.7456 719.4624 488.1408 688.2304 488.1408zM834.56 621.2608c-32.256 0-58.4704-26.2144-58.4704-58.368 0-32.256 26.2144-58.4704 58.4704-58.4704 32.256 0 58.4704 26.2144 58.4704 58.4704C893.0304 595.0464 866.816 621.2608 834.56 621.2608z" fill="#018F90" p-id="28261"></path></svg>