<?xml version="1.0" standalone="no"?><!DOCTYPE svg PUBLIC "-//W3C//DTD SVG 1.1//EN" "http://www.w3.org/Graphics/SVG/1.1/DTD/svg11.dtd"><svg t="1700371146776" class="icon" viewBox="0 0 1024 1024" version="1.1" xmlns="http://www.w3.org/2000/svg" p-id="32863" xmlns:xlink="http://www.w3.org/1999/xlink" width="200" height="200"><path d="M478.47424 249.61024h-111.86176c-7.74144 0-13.68064-1.80224-17.8176-5.38624a28.65152 28.65152 0 0 1-8.68352-13.7216 65.08544 65.08544 0 0 1-2.49856-18.69824c0-6.92224 0.55296-13.4144 1.67936-19.51744 0.53248-6.10304 1.6384-12.75904 3.29728-19.94752a61.8496 61.8496 0 0 1 7.0656-18.28864c3.03104-4.99712 7.04512-8.33536 12.00128-9.97376 4.97664-1.6384 11.0592-0.26624 18.2272 4.13696 8.31488 4.99712 17.69472 10.38336 28.20096 16.19968 10.50624 5.81632 20.70528 11.63264 30.65856 17.44896 9.9328 5.81632 19.16928 11.0592 27.7504 15.79008 8.56064 4.7104 15.0528 8.45824 19.456 11.22304 5.5296 3.8912 9.68704 8.17152 12.43136 12.86144 2.7648 4.7104 3.87072 9.13408 3.31776 13.312a14.90944 14.90944 0 0 1-6.63552 10.38336c-3.87072 2.7648-9.37984 4.15744-16.56832 4.15744l-0.02048 0.02048z m64.6144-0.8192h111.02208c7.74144 0 13.68064-1.80224 17.8176-5.40672 4.13696-3.584 7.04512-8.17152 8.704-13.7216 1.65888-5.5296 2.49856-11.776 2.49856-18.67776 0-6.92224-0.28672-13.43488-0.8192-19.51744a1229.08672 1229.08672 0 0 0-3.74784-19.51744 54.74304 54.74304 0 0 0-6.63552-17.87904 22.016 22.016 0 0 0-12.00128-9.97376c-4.97664-1.6384-11.0592-0.53248-18.2272 3.31776a928.1536 928.1536 0 0 1-28.20096 16.19968c-10.48576 5.81632-20.84864 11.63264-31.06816 17.44896-10.21952 5.81632-19.61984 11.0592-28.18048 15.79008a200.4992 200.4992 0 0 0-18.6368 11.22304c-6.08256 3.8912-10.50624 8.192-13.25056 12.86144-2.7648 4.7104-3.8912 9.13408-3.31776 13.312a14.90944 14.90944 0 0 0 6.61504 10.38336c3.8912 2.7648 9.66656 4.15744 17.408 4.15744z m-76.22656 54.82496H226.59072c-17.69472 0-29.14304 2.90816-34.4064 8.72448-5.24288 5.81632-7.86432 15.09376-7.86432 27.8528v73.1136c0 13.84448 2.90816 24.08448 8.704 30.74048 5.79584 6.656 17.24416 9.97376 34.38592 9.97376h239.4112v-150.40512h0.04096z m90.3168 0h236.9536c17.67424 0 29.696 3.4816 36.0448 10.40384 6.3488 6.92224 9.50272 16.75264 9.50272 29.4912v71.4752c0 13.29152-2.90816 23.12192-8.704 29.4912-5.79584 6.3488-17.24416 9.54368-34.38592 9.54368h-239.4112v-150.40512z m-90.3168 194.4576h-254.3616v314.12224c0 28.2624 8.00768 50.15552 24.02304 65.65888 16.01536 15.50336 40.87808 23.26528 74.58816 23.26528h155.7504V498.0736z m90.3168 0h253.5424v311.62368c-0.57344 28.2624-8.58112 50.56512-24.04352 66.90816-15.4624 16.34304-40.0384 24.51456-73.728 24.51456h-155.7504V498.11456l-0.04096-0.04096z" fill="#018F90" p-id="32864"></path></svg>