<?xml version="1.0" standalone="no"?><!DOCTYPE svg PUBLIC "-//W3C//DTD SVG 1.1//EN" "http://www.w3.org/Graphics/SVG/1.1/DTD/svg11.dtd"><svg t="1700102799347" class="icon" viewBox="0 0 1024 1024" version="1.1" xmlns="http://www.w3.org/2000/svg" p-id="36058" xmlns:xlink="http://www.w3.org/1999/xlink" width="200" height="200"><path d="M653.018 972.306l-586.01 0c-7.479 0-13.541-4.369-13.541-9.745l0-25.999c0-5.389 6.063-9.755 13.541-9.755l553.829 0 32.18 45.498zM197.547 883.373c0 5.839-6.795 10.575-15.169 10.575l-113.734 0c-8.395 0-15.174-4.736-15.174-10.575l0-183.173c0-5.839 6.782-10.575 15.174-10.575l113.735 0c8.374 0 15.169 4.736 15.169 10.575l0 183.173zM381.393 878.537c0 8.975-6.785 16.257-15.152 16.257l-113.76 0c-8.372 0-15.156-7.281-15.156-16.257l0-281.767c0-8.978 6.785-16.246 15.156-16.246l113.76 0c8.369 0 15.152 7.268 15.152 16.246l0 281.767zM576.018 880.066c0 11.722-6.795 14.726-15.152 14.726l-113.758 0c-8.374 0-15.156-3.004-15.156-14.726l0-380.868c0-11.723 6.782-14.726 15.156-14.726l113.758 0c8.359 0 15.152 3.004 15.152 14.726l0 380.868zM625.191 758.306l0-487.586c0-18.654 6.797-18.563 15.177-18.563l113.741 0c8.378 0 15.164-0.09 15.164 18.563 0 0 1.203 366.912 0 381.393-122.69 1.61-144.081 106.192-144.081 106.192zM703.967 118.304l-95.078-117.833-108.946 117.833 83.127 0c-18.683 86.724-111.398 375.74-522.019 418.188 0 0 477.593 52.006 560.357-418.188l82.559 0zM795.211 667.395c-98.342 0-178.067 79.724-178.067 178.065 0 98.342 79.724 178.067 178.067 178.067 98.341 0 178.065-79.724 178.065-178.067 0-98.341-79.724-178.065-178.065-178.065zM855.209 840.517l0 20.655-42.149 0 0 18.617 42.149 0 0 20.652-42.149 0 0 46.547-38.391 0 0-46.547-41.882 0 0-20.652 41.882 0 0-18.617-41.882 0 0-20.655 32.217 0-43.76-82.615 43.76 0 18.791 46.546c4.831 11.637 7.786 21.523 11.276 31.707l0.538 0c3.49-9.598 6.98-20.655 11.543-32l19.061-46.254 42.955 0-45.907 82.618 31.949 0z" fill="#018F90" p-id="36059"></path></svg>