<?xml version="1.0" standalone="no"?><!DOCTYPE svg PUBLIC "-//W3C//DTD SVG 1.1//EN" "http://www.w3.org/Graphics/SVG/1.1/DTD/svg11.dtd"><svg t="1699944734899" class="icon" viewBox="0 0 1024 1024" version="1.1" xmlns="http://www.w3.org/2000/svg" p-id="4345" xmlns:xlink="http://www.w3.org/1999/xlink" width="200" height="200"><path d="M959.064 448.562v383.625h-767.25V64.937H511.5V0.999H127.876v895.126H1023V448.562z" p-id="4346" fill="#1296db"></path><path d="M831.189 896.125v63.937H63.938v-767.25h127.875v-63.938H0V1024h895.126V896.125z" p-id="4347" fill="#1296db"></path><path d="M807.312 8.791L383.926 432.178c-3.997 1.598-7.693 3.896-10.89 7.093s-5.494 6.893-7.093 10.89l-25.975 25.974L256.35 768.25l299.308-76.426L1023 224.481 807.312 8.79z m125.278 215.69L568.046 589.025 442.768 463.747 807.312 99.203 932.59 224.481zM396.913 509.602l0.7-0.699L522.89 634.181l-174.33 44.556 48.353-169.135z" p-id="4348" fill="#1296db"></path></svg>