<?xml version="1.0" standalone="no"?><!DOCTYPE svg PUBLIC "-//W3C//DTD SVG 1.1//EN" "http://www.w3.org/Graphics/SVG/1.1/DTD/svg11.dtd"><svg t="1700301711534" class="icon" viewBox="0 0 1024 1024" version="1.1" xmlns="http://www.w3.org/2000/svg" p-id="9540" xmlns:xlink="http://www.w3.org/1999/xlink" width="200" height="200"><path d="M511.689076 305.399622" p-id="9541" fill="#018F90"></path><path d="M512.005585 576.67584h-0.633018" p-id="9542" fill="#018F90"></path><path d="M97.745455 199.262953" p-id="9543" fill="#018F90"></path><path d="M646.209164 556.182807h-0.633019" p-id="9544" fill="#018F90"></path><path d="M657.901382 876.590545c10.882327 0 21.345745 8.823156 21.345745 19.705484s-10.46528 19.705484-21.347607 19.705484H221.938036c-25.918371 0-49.470371-10.591884-66.528349-27.649862-17.057978-17.057978-27.649862-40.609978-27.649862-66.528349V242.321222c0-25.918371 10.591884-49.470371 27.649862-66.528349 17.057978-17.057978 40.609978-27.649862 66.528349-27.649862h579.50208c25.914647 0 49.466647 10.593745 66.524626 27.651724 17.061702 17.061702 27.653585 40.613702 27.653585 66.526487v349.640145c0 10.882327-8.823156 22.401396-19.705483 22.401397s-19.705484-11.286342-19.705484-22.168669v-349.872873c0-15.034182-6.170065-28.725993-16.106589-38.662517-9.934662-9.934662-23.622749-16.104727-38.660655-16.104727H221.938036c-15.039767 0-28.729716 6.168204-38.664378 16.102866-9.934662 9.934662-16.102865 23.624611-16.102865 38.664378v579.50208c0 15.039767 6.168204 28.729716 16.102865 38.664378 9.934662 9.934662 23.624611 16.102865 38.664378 16.102865h435.963346z" p-id="9545" fill="#018F90"></path><path d="M758.668567 642.563724h181.471418c11.385018 0 20.826298 8.549469 21.95456 19.876771l22.848233 229.307112c0.640465 6.43072-1.264175 12.207942-5.598487 16.996538-4.336175 4.790458-9.897425 7.257367-16.357935 7.257368H728.886924c-6.575942 0-12.234007-2.561862-16.573906-7.503128-4.339898-4.939404-6.151447-10.882327-5.30432-17.402414l29.781644-229.308975c1.435462-11.0592 10.725935-19.223273 21.878225-19.223272z m-0.543651 45.521454c1.470836 56.260422 44.177222 87.354647 87.16288 88.064 42.821818 0.703767 85.921047-28.61056 88.454982-88.062138-1.593716-6.049047-12.725527-6.339491-14.918749-0.001862-1.329338 98.436189-144.774982 96.23552-145.771054 0-2.712669-7.49568-14.079069-4.643375-14.928059 0z" p-id="9546" fill="#018F90"></path><path d="M662.965527 506.455505h-0.633018" p-id="9547" fill="#018F90"></path><path d="M351.250618 363.834647h391.635317v26.273978H351.250618zM351.250618 519.035811h391.635317v26.273978H351.250618zM351.250618 674.236975h261.909411v26.273978H351.250618z" p-id="9548" fill="#018F90"></path><path d="M260.952436 355.221876h43.49952v43.49952H260.952436zM260.952436 510.42304h43.49952v43.49952H260.952436zM260.952436 665.624204h43.49952v43.49952H260.952436z" p-id="9549" fill="#018F90"></path></svg>