<?xml version="1.0" standalone="no"?><!DOCTYPE svg PUBLIC "-//W3C//DTD SVG 1.1//EN" "http://www.w3.org/Graphics/SVG/1.1/DTD/svg11.dtd"><svg t="1700371002692" class="icon" viewBox="0 0 1024 1024" version="1.1" xmlns="http://www.w3.org/2000/svg" p-id="25065" xmlns:xlink="http://www.w3.org/1999/xlink" width="200" height="200"><path d="M901.12 500.3264c-42.02496-5.18144-84.5824-18.67776-127.63136-40.46848-43.06944-21.79072-83.27168-51.36384-120.6272-88.71936-37.35552-37.35552-66.80576-77.55776-88.33024-120.6272-21.52448-43.06944-35.14368-85.6064-40.8576-127.63136 48.25088 1.55648 95.06816 11.6736 140.47232 30.35136 45.40416 18.67776 86.50752 46.42816 123.35104 83.27168 36.84352 36.84352 64.7168 77.94688 83.6608 123.35104A383.26272 383.26272 0 0 1 901.12 500.3264zM476.20096 124.43648c5.71392 48.25088 20.35712 96.62464 43.97056 145.14176 23.61344 48.51712 56.4224 93.77792 98.44736 135.80288 42.02496 42.02496 87.28576 74.9568 135.80288 98.83648 48.51712 23.8592 96.8704 38.64576 145.14176 44.35968a397.14816 397.14816 0 0 1-33.85344 127.24224c-18.432 40.73472-44.48256 77.94688-78.21312 111.67744-33.73056 33.73056-70.94272 59.8016-111.67744 78.21312-40.73472 18.432-83.1488 29.696-127.24224 33.85344-5.71392-48.25088-20.48-96.62464-44.35968-145.14176-23.8592-48.51712-56.81152-93.7984-98.83648-135.7824-42.02496-42.04544-87.28576-74.8544-135.80288-98.46784-48.51712-23.61344-96.89088-38.25664-145.14176-43.97056 4.15744-44.09344 15.5648-86.6304 34.24256-127.63136 18.67776-40.98048 44.62592-78.336 77.824-112.06656 33.73056-33.19808 71.0656-59.14624 112.06656-77.824a395.14112 395.14112 0 0 1 127.63136-34.24256zM122.88 523.6736c42.02496 5.71392 84.5824 19.33312 127.63136 40.8576 43.06944 21.52448 83.27168 50.9952 120.6272 88.33024 37.35552 37.35552 66.92864 77.55776 88.71936 120.6272 21.79072 43.06944 35.28704 85.6064 40.46848 127.63136a383.2832 383.2832 0 0 1-140.4928-29.96224c-45.38368-18.944-86.48704-46.81728-123.33056-83.6608-36.84352-36.84352-64.59392-77.94688-83.27168-123.35104A400.30208 400.30208 0 0 1 122.88 523.6736z" fill="#018F90" p-id="25066"></path></svg>