<?xml version="1.0" standalone="no"?><!DOCTYPE svg PUBLIC "-//W3C//DTD SVG 1.1//EN" "http://www.w3.org/Graphics/SVG/1.1/DTD/svg11.dtd"><svg t="1700100488012" class="icon" viewBox="0 0 1024 1024" version="1.1" xmlns="http://www.w3.org/2000/svg" p-id="30746" xmlns:xlink="http://www.w3.org/1999/xlink" width="200" height="200"><path d="M400.3328 879.3088h242.4832c70.8096 0 187.5968-58.4192 187.5968-187.5968s-107.0592-303.104-319.488-303.104-319.488 184.5248-319.488 322.56c0 123.4432 93.8496 168.1408 208.896 168.1408z" fill="#018F90" p-id="30747"></path><path d="M348.7744 244.736m-100.1984 0a100.1984 100.1984 0 1 0 200.3968 0 100.1984 100.1984 0 1 0-200.3968 0Z" fill="#018F90" p-id="30748"></path><path d="M160.5632 426.0864m-76.9536 0a76.9536 76.9536 0 1 0 153.9072 0 76.9536 76.9536 0 1 0-153.9072 0Z" fill="#018F90" p-id="30749"></path><path d="M665.9072 244.736m-100.1984 0a100.1984 100.1984 0 1 0 200.3968 0 100.1984 100.1984 0 1 0-200.3968 0Z" fill="#018F90" p-id="30750"></path><path d="M860.4672 426.0864m-76.9536 0a76.9536 76.9536 0 1 0 153.9072 0 76.9536 76.9536 0 1 0-153.9072 0Z" fill="#018F90" p-id="30751"></path><path d="M783.5136 426.0864c0 25.2928 12.288 47.7184 31.1296 61.7472a558.52544 558.52544 0 0 0 11.4688-130.56c-25.1904 12.6464-42.5984 38.7072-42.5984 68.8128zM795.4432 557.1584C748.2368 466.7392 653.312 388.608 510.9248 388.608c-212.3776 0-319.488 184.5248-319.488 322.56 0 123.4432 93.7984 168.1408 208.8448 168.1408h103.424c135.8848-63.1808 242.0224-179.4048 291.7376-322.1504z" fill="#018F90" p-id="30752"></path><path d="M565.76 244.736c0 49.3056 35.6864 90.2144 82.5856 98.56 16.64-52.8384 25.6-109.1072 25.6-167.424 0-10.3936-0.3072-20.6848-0.8704-30.9248-2.3552-0.1536-4.7616-0.3584-7.168-0.3584-55.296-0.0512-100.1472 44.8-100.1472 100.1472zM623.8208 407.1424c-33.5872-11.776-71.168-18.5344-112.896-18.5344-212.3776 0-319.488 184.5248-319.488 322.56 0 5.7856 0.256 11.3664 0.6656 16.8448 192.5632-26.112 353.8432-150.4256 431.7184-320.8704z" fill="#018F90" p-id="30753"></path></svg>