<?xml version="1.0" standalone="no"?><!DOCTYPE svg PUBLIC "-//W3C//DTD SVG 1.1//EN" "http://www.w3.org/Graphics/SVG/1.1/DTD/svg11.dtd"><svg t="1700100335802" class="icon" viewBox="0 0 1024 1024" version="1.1" xmlns="http://www.w3.org/2000/svg" p-id="17045" xmlns:xlink="http://www.w3.org/1999/xlink" width="200" height="200"><path d="M116.5 817.5l-15.8-10.1L556.4 95.5l26.1-23.4-10.4 33.5z" fill="#018F90" p-id="17046"></path><path d="M116.5 824.9c-1.4 0-2.8-0.4-4-1.2l-15.7-10.1c-3.5-2.2-4.5-6.8-2.3-10.3L550.1 91.5c0.4-0.6 0.8-1.1 1.3-1.5l26.1-23.4c2.5-2.2 6.2-2.5 9-0.7s4.1 5.3 3.1 8.5l-10.3 33.5c-0.2 0.6-0.5 1.3-0.8 1.8L122.8 821.5c-1.1 1.7-2.8 2.8-4.7 3.3-0.5 0.1-1.1 0.1-1.6 0.1z m-5.5-19.8l3.2 2 451.1-704.7 2.1-6.8-5.3 4.7L111 805.1z" fill="#018F90" p-id="17047"></path><path d="M257.4 685.7c-49.5 0-89.1-62.5-71.2-134.7C225 394.1 320.5 256.7 454 165.5c61.4-42 133.7-26.7 151 19.7 17.6 46.6-7.8 99.9-49.5 128.9-97 66.2-166.4 166.1-194.6 280.1-12.6 49.3-53.6 91.7-103.5 91.5z" fill="#018F90" p-id="17048"></path><path d="M257.4 685.7c-49.5 0-89.1-62.5-71.2-134.7C225 394.1 320.5 256.7 454 165.5c61.4-42 133.7-26.7 151 19.7 17.6 46.6-7.8 99.9-49.5 128.9-97 66.2-166.4 166.1-194.6 280.1-12.6 49.3-53.6 91.7-103.5 91.5z" fill="#018F90" p-id="17049"></path><path d="M420.3 340c-2.8 0-5.5-0.8-8-2.4-28.9-18.5-49.3-47.1-57.6-80.6-2-8 2.9-16.1 10.9-18.1s16.1 2.9 18.1 10.9c6.4 26.1 22.3 48.3 44.7 62.6 6.9 4.4 9 13.7 4.5 20.6-2.9 4.6-7.7 7-12.6 7z m-69.9 84.5c-2.8 0-5.5-0.8-8-2.4-28.8-18.5-49.3-47.1-57.6-80.6-2-8 2.9-16.1 10.9-18.1s16.1 2.9 18.1 10.9c6.4 26.1 22.3 48.3 44.7 62.6 6.9 4.4 9 13.7 4.5 20.6-2.8 4.6-7.7 7-12.6 7z m-58.6 91.6c-2.8 0-5.5-0.8-8-2.4-28.9-18.5-49.3-47.1-57.6-80.6-2-8 2.9-16.1 10.9-18.1s16.1 2.9 18.1 10.9c6.4 26.1 22.3 48.3 44.7 62.6 6.9 4.4 9 13.7 4.5 20.6-2.9 4.6-7.7 7-12.6 7z" fill="#018F90" p-id="17050"></path><path d="M242.3 951.9l-11.7-14.6L891 409.8l32.3-13.8-20.6 28.4z" fill="#018F90" p-id="17051"></path><path d="M242.3 959.3h-0.8c-2-0.2-3.8-1.2-5-2.8l-11.7-14.6c-2.6-3.2-2-7.9 1.2-10.5L886.4 404c0.5-0.4 1.1-0.8 1.7-1l32.2-13.8c3.1-1.3 6.7-0.4 8.8 2.2 2.1 2.6 2.2 6.3 0.2 9l-20.6 28.4c-0.4 0.5-0.9 1-1.4 1.5L247 957.7c-1.4 1.1-3 1.6-4.7 1.6z m-1.2-20.9l2.4 3 653.8-522.2 4.2-5.8-6.5 2.8-653.9 522.2z" fill="#018F90" p-id="17052"></path><path d="M360.4 753.1a115.8 115.8 0 1 0 231.6 0 115.8 115.8 0 1 0-231.6 0z" fill="#018F90" p-id="17053"></path><path d="M476.4 885.5c-5 0-10-0.3-15-0.8-35.1-3.9-66.7-21.3-88.7-48.9-22.1-27.6-32.1-62.2-28.1-97.3 3.9-35.1 21.3-66.7 48.9-88.7 27.6-22.1 62.2-32.1 97.4-28.1 35.1 3.9 66.7 21.3 88.7 48.9 22.1 27.6 32.1 62.2 28.1 97.3-3.9 35.1-21.3 66.7-48.9 88.7-23.7 18.9-52.5 28.9-82.4 28.9z m-0.4-231.6c-22.4 0-44 7.5-61.8 21.7-20.7 16.5-33.7 40.2-36.7 66.5-2.9 26.3 4.5 52.3 21.1 73 16.5 20.7 40.2 33.7 66.5 36.7 26.4 3 52.3-4.5 73-21.1 20.7-16.5 33.8-40.2 36.7-66.5 2.9-26.3-4.5-52.3-21.1-73-16.5-20.7-40.2-33.7-66.5-36.7-3.8-0.4-7.5-0.6-11.2-0.6z" fill="#018F90" p-id="17054"></path><path d="M506.7 636.2a115.8 115.8 0 1 0 231.6 0 115.8 115.8 0 1 0-231.6 0z" fill="#018F90" p-id="17055"></path><path d="M622.7 768.7c-5 0-10-0.3-15-0.8C572.6 764 541 746.6 519 719c-45.6-57-36.2-140.5 20.8-186.1 57-45.6 140.5-36.2 186.1 20.8 45.6 57 36.2 140.5-20.8 186.1-23.7 18.8-52.5 28.9-82.4 28.9z m-0.3-231.7c-21.7 0-43.6 7.1-61.8 21.7-42.8 34.2-49.8 96.7-15.6 139.5 16.5 20.7 40.2 33.7 66.5 36.7 26.3 2.9 52.3-4.5 73-21.1 42.8-34.2 49.8-96.7 15.6-139.5-19.6-24.5-48.5-37.3-77.7-37.3z" p-id="17056" fill="#018F90"></path><path d="M653 519.4a115.8 115.8 0 1 0 231.6 0 115.8 115.8 0 1 0-231.6 0z" fill="#018F90" p-id="17057"></path><path d="M769 651.7c-38.9 0-77.5-17-103.6-49.7-45.6-57-36.2-140.5 20.8-186.1 27.6-22.1 62.2-32.1 97.4-28.1 35.1 3.9 66.7 21.3 88.7 48.9 45.6 57 36.2 140.5-20.8 186.1-24.4 19.5-53.6 28.9-82.5 28.9z m-0.4-231.6c-22.4 0-44 7.5-61.8 21.7C664 476 657 538.5 691.2 581.3c19.6 24.5 48.5 37.3 77.7 37.3 21.7 0 43.6-7.1 61.8-21.7 42.8-34.2 49.8-96.7 15.6-139.5-16.5-20.7-40.2-33.7-66.5-36.7-3.7-0.4-7.4-0.6-11.2-0.6z" p-id="17058" fill="#018F90"></path><path d="M387.3 802.9s-1.6-18.7 6.7-18.7 64.6 9.5 84.5 22.1c19.9 12.7 24.7 10.8 32.9 3.7 8.2-7.1-0.9-59.2-3.8-70.1s-9.4-35.6-0.1-43.9 4.7-42 4.7-42-58.5-38.9-116.7 17.5c-58.1 56.4-21.8 137.2-21.8 137.2l13.6-5.8z m131.8-144.6s3.9-12.7 12.7-12.5 42 38 56.1 36.1c14.1-1.9 30.3-17.4 35.5-38.3 5.2-20.9 4-35.6 13.5-45.7 9.4-10 31.5-20.8 31.5-20.8l-16-58S575.2 520.9 542 556c-33.4 35.2-22.9 102.3-22.9 102.3zM670.5 558s45 35.6 75.9 33c30.8-2.6 30.3-18.8 31.1-34.4 0.8-15.6-21.7-37.1-3.6-42.5 18.2-5.4 91.9 18.1 96.1 38.5 0 0 17.4-52.6 8.5-76.3-8.9-23.7-85.8-119.8-169.7-58.3-75.6 55.4-38.3 140-38.3 140z" fill="#018F90" p-id="17059"></path><path d="M476.4 885.5c-5 0-10-0.3-15-0.8-35.1-3.9-66.7-21.3-88.7-48.9-22.1-27.6-32.1-62.2-28.1-97.3 3.9-35.1 21.3-66.7 48.9-88.7 32.9-26.3 76.8-35.4 117.5-24.3l-8.7 32c-30.5-8.3-63.4-1.5-88.1 18.2-20.7 16.5-33.7 40.2-36.7 66.5-2.9 26.3 4.5 52.3 21.1 73 16.5 20.7 40.2 33.7 66.5 36.7 26.3 2.9 52.3-4.5 73-21.1 24.7-19.7 38.6-50.4 37.2-82l33.1-1.4c1.8 42.1-16.7 83-49.6 109.3-23.7 18.8-52.5 28.8-82.4 28.8z" p-id="17060" fill="#018F90"></path><path d="M622.7 768.7c-5 0-10-0.3-15-0.8C572.6 764 541 746.6 519 719c-45.6-57-36.2-140.5 20.8-186.1 32.9-26.3 76.8-35.4 117.5-24.3l-8.7 32c-30.5-8.3-63.4-1.5-88.1 18.2-42.8 34.2-49.8 96.7-15.6 139.5 16.5 20.7 40.2 33.7 66.5 36.7 26.3 2.9 52.3-4.5 73-21.1 24.7-19.7 38.6-50.4 37.2-82l33.1-1.5c1.9 42.2-16.7 83-49.6 109.4-23.7 18.8-52.5 28.9-82.4 28.9z" fill="#018F90" p-id="17061"></path><path d="M769 651.7c-38.9 0-77.5-17-103.6-49.7-45.6-57-36.2-140.5 20.8-186.1 27.6-22.1 62.2-32.1 97.4-28.1 35.1 3.9 66.7 21.3 88.7 48.9 45.6 57 36.2 140.5-20.8 186.1-24.4 19.5-53.6 28.9-82.5 28.9z m-0.4-231.6c-22.4 0-44 7.5-61.8 21.7C664 476 657 538.5 691.2 581.3c19.6 24.5 48.5 37.3 77.7 37.3 21.7 0 43.6-7.1 61.8-21.7 42.8-34.2 49.8-96.7 15.6-139.5-16.5-20.7-40.2-33.7-66.5-36.7-3.7-0.4-7.4-0.6-11.2-0.6zM257.9 702.2h-0.5c-25.1 0-48.4-12.3-65.8-34.5-24.4-31.2-32.4-76.3-21.4-120.7 39.9-161.2 137.4-301.5 274.5-395.1 37.7-25.8 82.8-34.1 120.6-22.1 26.9 8.5 46.6 26.2 55.3 49.7 9.9 26.1 8.9 54.8-2.7 83.1-10.5 25.6-29.3 48.8-52.9 65.1-94 64.2-160.7 160.2-188 270.5-7.2 27.9-22.3 53.6-42.6 72.4-22.3 20.7-48.7 31.6-76.5 31.6z m271.4-544.7c-21.8 0-45.1 7.5-65.9 21.7C333 268.3 240.3 401.7 202.4 555c-8.6 34.6-2.8 69.1 15.3 92.3 11 14 25.1 21.8 39.8 21.8h0.5c43.8 0 76.9-39.7 87-78.9 29.2-118.1 100.7-221 201.3-289.7 33.3-23.2 59-68.2 43.4-109.3-5.2-13.8-17.3-24.4-34.3-29.7-8.3-2.7-17.1-4-26.1-4z" fill="#018F90" p-id="17062"></path></svg>