<?xml version="1.0" standalone="no"?><!DOCTYPE svg PUBLIC "-//W3C//DTD SVG 1.1//EN" "http://www.w3.org/Graphics/SVG/1.1/DTD/svg11.dtd"><svg t="1700371125543" class="icon" viewBox="0 0 1024 1024" version="1.1" xmlns="http://www.w3.org/2000/svg" p-id="31673" xmlns:xlink="http://www.w3.org/1999/xlink" width="200" height="200"><path d="M865.28 287.744q19.456-6.144 33.792-3.072t25.088 12.8 17.408 25.6 10.752 35.328l7.168 38.912q5.12 28.672 9.728 65.536t6.656 77.312 0 75.264-10.752 58.88-27.136 29.184q-54.272 14.336-88.576 12.8t-61.952-8.192-55.296-15.36-68.608-9.728q-43.008-1.024-98.304 10.24t-121.344 22.016-141.312 12.8-158.208-18.432q-10.24-3.072-25.088-6.656t-29.696-10.752-27.648-17.92-16.896-27.136q-8.192-29.696 2.048-51.712t27.648-32.256q22.528-12.288 45.056-13.824t53.248-4.096 75.264-13.312 112.128-41.472q53.248-24.576 94.208-57.344t70.144-65.536 47.104-61.44 26.112-44.032q19.456-39.936 37.888-53.76t47.104-11.776q31.744 2.048 51.2 20.992t37.376 38.4 38.912 31.744 54.784 0zM565.248 637.952q28.672-9.216 61.44-14.848t62.464-5.632q36.864 0 64 9.216t48.64 18.432q9.216 4.096 16.896 2.56t10.752-7.168-0.512-14.848-15.872-20.48q-9.216-7.168-21.504-20.48t-27.136-26.624-31.232-22.528-32.768-9.216-33.28 6.656-33.792 17.408-34.816 23.552-36.352 25.088q-14.336 9.216-18.944 17.92t-2.56 13.824 9.216 7.68 15.36-0.512zM621.568 320.512q-12.288 0-20.48 8.704t-8.192 20.992q0 11.264 8.192 19.968t20.48 8.704 20.48-8.704 8.192-19.968q0-12.288-8.192-20.992t-20.48-8.704zM560.128 401.408q-12.288 0-20.992 8.704t-8.704 20.992 8.704 20.992 20.992 8.704 20.992-8.704 8.704-20.992-8.704-20.992-20.992-8.704z" p-id="31674" fill="#018F90"></path></svg>