<?xml version="1.0" standalone="no"?><!DOCTYPE svg PUBLIC "-//W3C//DTD SVG 1.1//EN" "http://www.w3.org/Graphics/SVG/1.1/DTD/svg11.dtd"><svg t="1700370905808" class="icon" viewBox="0 0 1024 1024" version="1.1" xmlns="http://www.w3.org/2000/svg" p-id="19391" xmlns:xlink="http://www.w3.org/1999/xlink" width="200" height="200"><path d="M371.370667 793.6c-28.8-8.277333-51.285333-14.506667-72.704-25.6-21.888 0.682667-156.16 94.421333-170.666667 85.333333-14.848-11.605333 34.688-152.490667 0-170.666666a424.533333 424.533333 0 0 1-85.333333-256c0-183.424 162.389333-341.333333 384-341.333334 59.178667 0 116.565333 17.28 166.826666 47.018667a425.216 425.216 0 0 1 114.901334 12.928c19.456 4.949333 33.792 9.984 41.941333 13.482667 137.386667 55.168 231.381333 196.138667 231.381333 353.237333 0 101.802667-36.48 195.2-102.314666 266.666667 0.64 2.986667 1.706667 6.997333 3.114666 11.861333 1.792 6.058667 4.138667 13.226667 7.296 22.613333l9.301334 26.88 2.56 7.509334c24.448 71.808 29.696 94.037333 8.234666 108.074666-5.632 5.205333-12.416 6.016-19.498666 5.034667a47.616 47.616 0 0 1-10.112-2.816 211.456 211.456 0 0 1-20.608-9.514667 1016.064 1016.064 0 0 1-25.770667-13.781333l-29.184-16.213333-3.797333-2.048c-23.978667-13.226667-39.808-21.632-52.608-27.562667a138.837333 138.837333 0 0 0-16.298667-6.698667c0.853333 0.042667 1.706667-0.128 3.157333-0.938666l-4.181333 0.768c-47.061333 8.277333-75.989333 12.714667-103.68 15.36-98.858667-2.56-188.458667-40.533333-256-103.594667z m283.818666-615.253333C723.413333 241.450667 768 330.581333 768 426.666667c0 194.133333-143.872 345.429333-310.058667 379.093333a343.893333 343.893333 0 0 0 167.936 48.896c22.912-2.346667 50.005333-6.485333 93.568-14.08 15.658667-8.533333 31.829333-0.469333 102.144 38.357333l3.84 2.133334 29.013334 16.042666c8.618667 4.736 15.530667 8.448 21.376 11.52a579.925333 579.925333 0 0 0-14.506667-47.36l-2.56-7.381333v0.085333l-9.301333-27.136c-3.370667-9.813333-5.845333-17.493333-7.808-24.192-7.68-25.984-9.173333-35.584 0.725333-46.890666 62.378667-64.938667 96.682667-150.101333 96.682667-243.754667 0-139.776-83.541333-265.002667-205.141334-313.856a254.506667 254.506667 0 0 0-36.010666-11.52 383.786667 383.786667 0 0 0-42.666667-8.234667zM234.666667 512a64 64 0 1 0 0-128 64 64 0 0 0 0 128z m170.666666 0a64 64 0 1 0 0-128 64 64 0 0 0 0 128z m170.666667 0a64 64 0 1 0 0-128 64 64 0 0 0 0 128z" fill="#018F90" p-id="19392"></path></svg>