<?xml version="1.0" standalone="no"?><!DOCTYPE svg PUBLIC "-//W3C//DTD SVG 1.1//EN" "http://www.w3.org/Graphics/SVG/1.1/DTD/svg11.dtd"><svg t="1700468327850" class="icon" viewBox="0 0 1024 1024" version="1.1" xmlns="http://www.w3.org/2000/svg" p-id="38641" xmlns:xlink="http://www.w3.org/1999/xlink" width="200" height="200"><path d="M512 954.2656c-251.71968 0-455.79264-204.07296-455.79264-455.79264S260.28032 42.69056 512 42.69056 967.79264 246.76352 967.79264 498.4832 763.71968 954.2656 512 954.2656z m96.32768-243.08736c114.24768 0 206.92992-101.888 206.92992-227.55328 0-125.6448-92.672-227.5328-206.92992-227.5328H470.31296v455.08608h138.01472z m-372.62336 0c91.46368 0 165.60128-71.92576 165.60128-160.6144V256.09216h-55.18336v294.44096c0 59.15648-49.408 107.1104-110.3872 107.1104h-27.58656v53.54496h27.58656-0.03072z m0 0" fill="#018F90" p-id="38642"></path><path d="M608.32768 309.62688h-82.83136V657.6128h82.80064c83.83488 0 151.77728-77.90592 151.77728-173.98784s-67.9424-173.98784-151.77728-173.98784h0.03072z m0 0" fill="#018F90" p-id="38643"></path></svg>