<?xml version="1.0" standalone="no"?><!DOCTYPE svg PUBLIC "-//W3C//DTD SVG 1.1//EN" "http://www.w3.org/Graphics/SVG/1.1/DTD/svg11.dtd"><svg t="1700448823615" class="icon" viewBox="0 0 1024 1024" version="1.1" xmlns="http://www.w3.org/2000/svg" p-id="36522" xmlns:xlink="http://www.w3.org/1999/xlink" width="200" height="200"><path d="M959.838737 312.721653c-0.172014-14.277171-0.172014-20.125651-0.344028-26.834201-0.344028-20.125651-1.720141-40.423316-5.160423-58.656812-3.78431-19.781623-8.77272-37.843104-17.889467-55.904586-9.288762-18.233496-22.017806-34.058794-35.778935-48.163951-14.105157-13.761129-29.930455-26.490173-48.163951-35.778935-18.061482-9.116748-35.950949-14.105157-55.732572-17.889467-18.061482-3.440282-38.531161-4.644381-58.656812-4.988409-6.70855-0.172014-12.55703-0.172014-26.834201-0.344028-13.589115-0.172014-24.598018-0.172014-32.854695-0.172014-41.627415 0-291.047875 0-332.67529 0-8.256677 0-19.26558 0-32.854695 0.172014-14.277171 0.172014-20.125651 0.172014-26.834201 0.344028-20.125651 0.344028-40.423316 1.720141-58.656812 5.160423-19.781623 3.78431-37.843104 8.77272-55.904586 17.889467-18.233496 9.288762-34.058794 22.017806-48.163951 35.778935-13.761129 14.105157-26.490173 29.930455-35.606921 48.163951-9.116748 18.061482-14.105157 35.950949-17.889467 55.904586-3.440282 18.061482-4.816395 38.531161-4.988409 58.656812-0.172014 6.70855-0.172014 12.55703-0.344028 26.834201-0.172014 13.589115-0.172014 24.770032-0.172014 33.026709l0 332.67529c0 8.256677 0 19.26558 0.172014 32.854695 0.172014 14.277171 0.172014 20.125651 0.344028 26.834201 0.344028 20.125651 1.548127 40.423316 4.988409 58.656812 3.78431 19.781623 8.77272 37.843104 17.889467 55.904586 9.288762 18.233496 21.845792 34.058794 35.606921 48.163951 14.105157 13.761129 29.930455 26.490173 48.163951 35.778935 18.061482 9.116748 35.950949 14.105157 55.732572 17.889467 18.233496 3.440282 38.531161 4.644381 58.656812 5.160423 6.70855 0.172014 12.55703 0.172014 26.834201 0.344028 13.589115 0.172014 24.770032 0.172014 32.854695 0.172014 41.627415 0 291.047875 0 332.67529 0 8.256677 0 19.26558 0 32.854695-0.172014 14.277171-0.172014 20.125651-0.172014 26.834201-0.344028 20.125651-0.344028 40.423316-1.720141 58.656812-5.160423 19.781623-3.78431 37.843104-8.77272 55.732572-17.889467 18.233496-9.288762 34.058794-22.017806 48.163951-35.778935 13.761129-14.105157 26.490173-29.930455 35.778935-48.163951 9.116748-18.061482 14.105157-35.950949 17.889467-55.904586 3.440282-18.061482 4.644381-38.531161 5.160423-58.656812 0.172014-6.70855 0.172014-12.55703 0.344028-26.834201 0.172014-13.589115 0.172014-24.770032 0.172014-32.854695L959.838737 345.576348C960.010751 337.491685 960.010751 326.310768 959.838737 312.721653zM280.555014 239.099614c35.090879 0 63.645221 25.974131 63.645221 58.140769s-28.554342 58.140769-63.645221 58.140769c-35.434907 0-63.989249-26.146145-63.989249-58.140769C216.737779 264.90173 245.120108 239.099614 280.555014 239.099614zM333.707374 588.460272c-16.857383 52.980346-12.55703 33.370737-79.470519 181.130858l-96.67193-61.409037c0 0 108.196876-99.940198 130.214682-145.695952 23.565933-48.163951-26.146145-73.794053-26.146145-73.794053l-74.310096-46.959852 40.423316-62.957164c55.904586 42.315471 60.032925 45.755753 97.704015 84.286914C354.693096 493.164455 350.908785 534.447841 333.707374 588.460272zM860.586595 657.43793c-18.921552 180.098774-249.592474 113.013271-249.592474 113.013271l12.55703-51.604233 53.496388 11.524945c98.736099 6.364522 89.103309-81.19066 89.103309-81.19066L766.150848 394.428355c0.688056-96.843944-89.619352-106.992777-252.000672-47.991937l37.67109 10.492861c-3.096254 11.180917-15.309256 28.898371-31.134554 48.163951L737.940534 405.09323l0 44.723669-122.130018 0 0 55.732572 121.78599 0 0 44.723669L615.810516 550.27314l0 93.403662c18.40551-6.020494 35.262893-14.449185 49.884092-25.630102l-10.664875-40.59533 57.452713-18.233496 47.991937 119.033764L689.776583 708.182093l-12.55703-47.475895c-31.650596 24.598018-97.187972 60.204939-211.921384 56.936671-122.302033 3.268268-90.82345-140.1915-90.82345-140.1915l3.096254-1.548127 86.179069 0c-0.688056 18.40551-8.084663 48.507979 2.064169 64.84932 8.428691 13.417101 29.930455 15.653284 43.51957 16.513355 1.548127 0.172014 3.268268 0.172014 4.644381 0.172014L513.978162 550.445154l-124.538216 0 0-44.723669 124.538216 0 0-55.732572L481.639509 449.988913c-28.0383 30.102469-53.668402 55.216529-53.668402 55.216529l-37.67109-33.370737c26.834201-28.726356 53.496388-74.138082 70.009743-104.240551-13.417101 5.504452-27.178229 11.524945-41.455401 17.717453-13.761129 18.061482-29.758441 36.294977-47.647909 54.528473 0.688056 0.860071-61.753066-35.606921-61.753066-35.606921 64.333277-55.732572 100.456241-175.282379 100.456241-175.282379l89.619352 25.458088c0 0-7.224593 17.717453-22.705863 44.723669 358.133378-103.036452 379.291114 63.129179 379.291114 63.129179S879.336133 477.167143 860.586595 657.43793z" fill="#018F90" p-id="36523"></path></svg>