<?xml version="1.0" standalone="no"?><!DOCTYPE svg PUBLIC "-//W3C//DTD SVG 1.1//EN" "http://www.w3.org/Graphics/SVG/1.1/DTD/svg11.dtd"><svg t="1700100452943" class="icon" viewBox="0 0 1024 1024" version="1.1" xmlns="http://www.w3.org/2000/svg" p-id="27049" xmlns:xlink="http://www.w3.org/1999/xlink" width="200" height="200"><path d="M1008.410587 15.589413c-25.594177-25.594177-76.782532-15.356506-127.970887 0s-117.733216 87.020203-153.565064 122.852052l-117.733216 112.61438L97.257874 102.609616c-5.118835 0-15.356506 0-20.475342 5.118836L10.237671 164.035642c-5.118835 5.118835-10.237671 15.356506-10.237671 20.475342 0 10.237671 5.118835 15.356506 15.356506 20.475342l429.982179 214.991089-225.22876 266.179444-138.208558-20.475342h-5.118835c-5.118835 0-10.237671 0-15.356506 5.118836L5.118835 727.107543c-5.118835 5.118835-5.118835 10.237671-5.118835 15.356506 0 5.118835 5.118835 10.237671 10.237671 15.356507L204.753419 819.246581l66.544861 199.634584s5.118835 5.118835 10.237671 5.118835 10.237671 0 15.356506-5.118835l56.30719-56.307191c5.118835-5.118835 10.237671-10.237671 5.118836-20.475341l-25.594178-138.208558 266.179444-225.22876 214.99109 429.982179 15.356506 15.356506h5.118836c5.118835 0 10.237671 0 15.356506-5.118835l66.544861-51.188355c10.237671-5.118835 10.237671-15.356506 10.237671-25.594177l-153.565064-522.121218L890.677371 307.363035c35.831848-35.831848 102.376709-107.495545 117.733216-158.6839 15.356506-56.30719 25.594177-107.495545 0-133.089722z" p-id="27050" fill="#018F90"></path></svg>