<?xml version="1.0" standalone="no"?><!DOCTYPE svg PUBLIC "-//W3C//DTD SVG 1.1//EN" "http://www.w3.org/Graphics/SVG/1.1/DTD/svg11.dtd"><svg t="1700371013194" class="icon" viewBox="0 0 1024 1024" version="1.1" xmlns="http://www.w3.org/2000/svg" p-id="26200" xmlns:xlink="http://www.w3.org/1999/xlink" width="200" height="200"><path d="M860.833773 30.026147a30.207692 30.207692 0 0 1 40.575585-2.239977l2.431976 2.239977 79.785852 80.852508c10.687891 10.879889 11.626548 27.989048 2.154645 39.935592l-2.175978 2.474642-71.679269 72.681924-43.007561-42.346234 50.772816-51.540807-37.332953-37.887614-52.415465 53.162124-43.007561-42.346234 73.897913-74.985901z m-338.215214 330.023297l44.671544 40.575586L347.772344 642.009233l-44.671544-40.575586 219.517759-241.384203zM117.097365 797.655644l42.282235 43.092893-54.335445 53.226124 37.332952 36.56496 52.116801-51.114145 42.282235 43.092893-73.257919 71.807267a30.207692 30.207692 0 0 1-39.828926 2.175978l-2.431975-2.175978-80.425846-78.783195a30.165025 30.165025 0 0 1-2.282643-40.618253l2.26131-2.474641 76.287221-74.815236v0.021333z m493.328297-349.841762l44.692877 40.596919-219.517759 241.384202-44.692877-40.596919 219.517759-241.384202z" fill="#018F90" p-id="26201"></path><path d="M45.162099 620.505452l-6.527933 6.613266c-37.226287 38.122278-37.226287 99.945646 0 138.025258l224.893704 229.992319a95.572358 95.572358 0 0 0 136.894603 0l6.485267-6.655932c37.226287-38.079611 37.226287-99.924313 0-137.982592L182.014036 620.505452a95.572358 95.572358 0 0 0-136.851937 0z m93.673711 42.154237l224.893704 230.034985c14.293187 15.018513 14.293187 38.612939 0 53.631452l-6.5066 6.613266a35.156974 35.156974 0 0 1-50.495485 0L81.769726 722.989739a38.89027 38.89027 0 0 1 0-53.652785l6.527933-6.613266a35.199641 35.199641 0 0 1 50.516818-0.042666h0.021333z m306.066209-611.193761l-6.527934 6.634599c-37.204954 38.100944-37.226287 99.924313 0 138.003924l381.649438 390.204017a95.615024 95.615024 0 0 0 136.873269 0l6.527933-6.655932c37.18362-38.036945 37.18362-99.90298-0.042666-137.961258L581.796621 51.423262a95.572358 95.572358 0 0 0-136.894602 0z m93.716376 42.154236L920.1825 483.845514a38.82627 38.82627 0 0 1 0 53.652786l-6.5066 6.655932a35.220974 35.220974 0 0 1-50.474151-0.042666L481.530978 153.907549a38.89027 38.89027 0 0 1-0.042666-53.61012l6.527933-6.655932a35.199641 35.199641 0 0 1 50.559484-0.021333z" fill="#018F90" p-id="26202"></path><path d="M623.69486 28.852825l-6.549266 6.677266c-37.204954 38.100944-37.204954 99.90298 0 138.003924l224.893704 229.970986a95.615024 95.615024 0 0 0 136.915936 0l6.5066-6.655932c37.204954-38.100944 37.204954-99.924313 0-138.003925L760.589463 28.852825a95.615024 95.615024 0 0 0-136.894603 0z m93.695044 42.196903l224.872371 229.970986c14.293187 15.039846 14.293187 38.612939 0 53.652785l-6.527934 6.634599a35.199641 35.199641 0 0 1-50.516817 0L660.32382 131.358446a38.911603 38.911603 0 0 1 0-53.631453l6.527933-6.634599a35.220974 35.220974 0 0 1 50.559484-0.021333V71.049728zM65.236561 444.848579l-6.335935 6.613266c-36.202297 37.695615-36.202297 98.772325 0 136.531939l370.23622 386.129392a92.799053 92.799053 0 0 0 134.526627 0l6.335935-6.655932c36.159631-37.652949 36.159631-98.750992-0.063999-136.489274L199.720522 444.848579a92.756386 92.756386 0 0 0-134.483961 0z m90.879072 41.748907l370.257554 386.129392c13.802526 14.399853 13.802526 38.612939 0 53.055458l-6.357268 6.613266a32.405003 32.405003 0 0 1-47.274185-0.021333L102.54818 546.26621c-13.845192-14.399853-13.845192-38.655605-0.021333-53.012792l6.314602-6.613266a32.405003 32.405003 0 0 1 47.359517 0l-0.064-0.042666z" fill="#018F90" p-id="26203"></path></svg>